<svg width="16" height="16" viewBox="0 0 16 16" fill="none" xmlns="http://www.w3.org/2000/svg">
<g clip-path="url(#clip0_202_1003)">
<path d="M15.3395 8.00061C15.3395 8.72792 14.0171 9.23041 13.7989 9.885C13.5807 10.5396 14.3477 11.7495 13.9377 12.3115C13.5278 12.8735 12.1525 12.5165 11.5839 12.9331C11.0153 13.3496 10.9227 14.7579 10.2616 14.9827C9.60037 15.2076 8.72762 14.1033 8.00031 14.1033C7.273 14.1033 6.38702 15.2009 5.73243 14.9893C5.07788 14.7777 4.97868 13.3496 4.41007 12.9396C3.84145 12.5297 2.47939 12.8867 2.04963 12.3181C1.61986 11.7495 2.40667 10.566 2.18848 9.89156C1.97028 9.21716 0.661133 8.72789 0.661133 8.00058C0.661133 7.27327 1.9835 6.77078 2.2017 6.11619C2.41989 5.4616 1.65292 4.25164 2.04963 3.68303C2.44633 3.11441 3.83483 3.47805 4.40344 3.0615C4.97206 2.64495 5.06463 1.23664 5.72581 1.01182C6.38699 0.787001 7.27297 1.8978 8.00028 1.8978C8.72759 1.8978 9.61356 0.80022 10.2682 1.01182C10.9227 1.22343 11.0219 2.65155 11.5905 3.0615C12.1591 3.47142 13.5278 3.11441 13.9443 3.68303C14.3609 4.25164 13.5873 5.43516 13.8055 6.10956C14.0237 6.78403 15.3395 7.2733 15.3395 8.00061Z" fill="#C5EDD8"/>
<path d="M5.91362 15.6796C5.78799 15.6796 5.65973 15.6611 5.52882 15.618C4.87954 15.4084 4.61441 14.7519 4.38034 14.1734C4.2858 13.9406 4.12842 13.5512 4.02329 13.4751C3.91947 13.4004 3.50955 13.3727 3.26426 13.3561C2.67383 13.3165 1.93924 13.2675 1.52203 12.7155C1.09358 12.1488 1.28202 11.4268 1.43343 10.8469C1.49494 10.6109 1.59872 10.2155 1.55906 10.0939C1.51941 9.97154 1.22055 9.72359 1.02351 9.55896C0.567961 9.18144 0 8.71002 0 8.00058C0 7.28649 0.578524 6.80978 1.04401 6.4263C1.22783 6.27489 1.53528 6.02166 1.57494 5.90728C1.61197 5.78762 1.50881 5.38691 1.448 5.14759C1.29393 4.54525 1.11873 3.8616 1.5075 3.30486C1.90555 2.73424 2.64805 2.68599 3.24445 2.64699C3.49305 2.63111 3.90894 2.60402 4.01273 2.52798C4.12051 2.44995 4.27721 2.06318 4.37043 1.83242C4.60316 1.25718 4.86698 0.605934 5.5136 0.386425C6.17147 0.161635 6.79365 0.558339 7.29217 0.875695C7.51831 1.01983 7.85948 1.23671 8.00095 1.23671C8.14508 1.23671 8.48957 1.01851 8.71767 0.874383C9.23669 0.546432 9.8245 0.174854 10.4718 0.383113C11.1204 0.592715 11.3862 1.24862 11.6196 1.82714C11.7142 2.05987 11.8722 2.44998 11.9773 2.52601C12.0812 2.60139 12.4924 2.62849 12.7377 2.64502C13.3301 2.68468 14.068 2.73427 14.4773 3.29298C14.8892 3.85497 14.7054 4.56972 14.5579 5.14431C14.4964 5.383 14.394 5.78237 14.4336 5.90665C14.4733 6.02831 14.7847 6.28682 14.9712 6.44089C15.4294 6.81975 16 7.29183 16 8.0013C16 8.71539 15.4214 9.19276 14.956 9.57624C14.7728 9.72765 14.4647 9.98088 14.425 10.0953C14.3887 10.2143 14.4892 10.6103 14.5493 10.8477C14.7034 11.4553 14.878 12.1449 14.4713 12.7023C14.0673 13.257 13.3638 13.304 12.7436 13.3463C12.495 13.3628 12.0792 13.3906 11.974 13.468C11.8669 13.5467 11.7109 13.9334 11.617 14.1642C11.3836 14.7387 11.1204 15.39 10.4738 15.6109C9.8159 15.835 9.19769 15.4409 8.70179 15.1256C8.47832 14.9827 8.14046 14.7672 7.99961 14.7672C7.85548 14.7672 7.511 14.9854 7.28289 15.1295C6.86969 15.3893 6.41151 15.6796 5.91362 15.6796ZM5.91362 1.64329C5.84949 1.70214 5.6908 2.09421 5.59626 2.32829C5.40385 2.80302 5.20549 3.29426 4.79426 3.59512C4.37971 3.8986 3.84613 3.93363 3.33039 3.96735C3.0851 3.98257 2.67383 4.00967 2.57267 4.08239C2.56142 4.16436 2.66655 4.57432 2.72871 4.81961C2.85696 5.3221 2.99053 5.84115 2.82855 6.32579C2.6712 6.79853 2.27119 7.1278 1.88439 7.4465C1.69794 7.59988 1.35146 7.88617 1.32105 8.01049C1.34949 8.1123 1.68735 8.39332 1.86917 8.54407C2.24009 8.85283 2.65995 9.20129 2.81796 9.68859C2.976 10.1765 2.83646 10.7114 2.71349 11.1829C2.65133 11.4209 2.54685 11.8209 2.58786 11.9379C2.66917 11.9928 3.1135 12.0226 3.35286 12.0384C3.86066 12.0722 4.38562 12.1072 4.79688 12.4034C5.21143 12.7023 5.41244 13.1988 5.60682 13.6788C5.7007 13.9109 5.85743 14.2984 5.9599 14.3718C6.03262 14.3559 6.37314 14.1391 6.57677 14.0108C6.99729 13.745 7.47334 13.4435 8.00095 13.4435C8.52726 13.4435 8.99868 13.7443 9.41457 14.0088C9.61624 14.137 9.95278 14.3532 10.0731 14.3532C10.1379 14.2937 10.2966 13.9017 10.3911 13.6676C10.5836 13.1922 10.7826 12.7016 11.1931 12.4008C11.6077 12.0966 12.1644 12.0596 12.6557 12.0265C12.9036 12.0107 13.3182 11.9822 13.4187 11.9069C13.4326 11.8229 13.3294 11.4163 13.2679 11.173C13.1416 10.6744 13.0107 10.1587 13.1714 9.67737C13.3287 9.20463 13.7288 8.87468 14.1155 8.55667C14.2967 8.40657 14.6313 8.13087 14.6762 8.00192C14.6326 7.87695 14.306 7.60653 14.1294 7.4604C13.7565 7.1523 13.334 6.80253 13.1767 6.31523C13.0186 5.82596 13.1562 5.28972 13.2772 4.81633C13.3393 4.57697 13.4418 4.17564 13.4015 4.05861C13.3228 4.01035 12.9016 3.98257 12.6497 3.96538C12.1412 3.93166 11.6156 3.89663 11.2037 3.59974C10.7892 3.30089 10.5882 2.80434 10.3938 2.32432C10.2999 2.0929 10.1432 1.70545 10.0407 1.63207C9.96863 1.6486 9.62746 1.8648 9.42379 1.99374C9.00328 2.25953 8.52722 2.56105 7.99961 2.56105C7.47331 2.56105 6.99922 2.25888 6.58071 1.99308C6.37779 1.8608 6.03528 1.64329 5.91362 1.64329ZM14.6789 8.01049H14.6862H14.6789Z" fill="#3EC37D"/>
<path d="M7.12102 10.7577C6.9458 10.7577 6.77789 10.6889 6.65357 10.564L4.88822 8.79861C4.62971 8.5401 4.62971 8.12221 4.88822 7.8637C5.14673 7.60519 5.56462 7.60519 5.82313 7.8637L7.0774 9.11731L10.0249 5.59254C10.259 5.31353 10.6749 5.2745 10.9565 5.50988C11.2369 5.74395 11.2732 6.16116 11.0399 6.44148L7.62817 10.521C7.50916 10.6632 7.33594 10.7491 7.15012 10.757C7.14087 10.7577 7.13093 10.7577 7.12102 10.7577Z" fill="#3EC37D"/>
</g>
<defs>
<clipPath id="clip0_202_1003">
<rect width="16" height="16" fill="white"/>
</clipPath>
</defs>
</svg>
