<svg width="134" height="44" viewBox="0 0 134 44" fill="none" xmlns="http://www.w3.org/2000/svg">
<circle cx="20" cy="22" r="18" stroke="url(#paint0_linear_202_2123)" stroke-width="4"/>
<path d="M57.077 11.758H50.001V32H57.077C63.544 32 67.749 28.027 67.749 21.908C67.749 15.76 63.544 11.758 57.077 11.758ZM54.061 28.549V15.18H56.932C61.195 15.18 63.602 17.703 63.602 21.908C63.602 26.113 61.195 28.549 56.932 28.549H54.061ZM70.7881 32H74.8481V15.934H70.7881V32ZM72.8471 14.02C74.2681 14.02 75.3411 12.976 75.3411 11.642C75.3411 10.308 74.2681 9.264 72.8471 9.264C71.3971 9.264 70.3531 10.308 70.3531 11.642C70.3531 12.976 71.3971 14.02 72.8471 14.02ZM77.8154 23.909C77.8154 28.926 81.0634 32.261 85.1524 32.261C87.6754 32.261 89.5024 31.014 90.4594 29.622V32.116C90.4594 35.103 88.7194 36.379 86.4864 36.379C84.4564 36.379 82.9484 35.422 82.5424 33.972H78.5114C78.9174 37.655 82.0784 39.917 86.6024 39.917C91.8804 39.917 94.5484 36.466 94.5484 32.116V15.934H90.4594V18.225C89.5024 16.833 87.6754 15.673 85.1524 15.673C81.0634 15.673 77.8154 18.892 77.8154 23.909ZM90.4594 23.967C90.4594 27.012 88.4294 28.694 86.1964 28.694C84.0214 28.694 81.9624 26.954 81.9624 23.909C81.9624 20.864 84.0214 19.24 86.1964 19.24C88.4294 19.24 90.4594 20.922 90.4594 23.967ZM98.5137 32H102.574V15.934H98.5137V32ZM100.573 14.02C101.994 14.02 103.067 12.976 103.067 11.642C103.067 10.308 101.994 9.264 100.573 9.264C99.1227 9.264 98.0787 10.308 98.0787 11.642C98.0787 12.976 99.1227 14.02 100.573 14.02ZM107.223 27.012C107.223 30.695 109.282 32 112.356 32H114.908V28.578H113.023C111.747 28.578 111.312 28.114 111.312 27.041V19.269H114.908V15.934H111.312V11.961H107.223V15.934H105.309V19.269H107.223V27.012ZM124.672 27.157L120.525 15.934H115.972L122.41 31.594L118.93 39.598H123.251L133.198 15.934H128.877L124.672 27.157Z" fill="#272727"/>
<defs>
<linearGradient id="paint0_linear_202_2123" x1="7.6" y1="5.2" x2="34.8" y2="38.4" gradientUnits="userSpaceOnUse">
<stop stop-color="#3EC37D"/>
<stop offset="0.25942" stop-color="#4F98CA"/>
<stop offset="0.679252" stop-color="#3EC37D"/>
<stop offset="1" stop-color="#4F98CA"/>
</linearGradient>
</defs>
</svg>
