<svg width="57" height="40" viewBox="0 0 57 40" fill="none" xmlns="http://www.w3.org/2000/svg">
<path d="M54.7256 20.1519C47.155 34.7915 30.9224 39.9948 30.9224 39.9948L38.154 24.4925C33.3641 21.9864 31.0188 18.0289 31.118 12.6198C31.2173 9.11057 32.4446 6.12954 34.8 3.67674C37.1554 1.22393 40.0887 -0.00155191 43.5998 0.0002854C45.3067 -0.0326962 47.001 0.299111 48.5694 0.973524C50.1378 1.64794 51.5442 2.64941 52.6944 3.91099C55.107 6.40722 56.4319 9.75778 56.3792 13.2289C56.3792 15.5384 54.7256 20.1519 54.7256 20.1519Z" fill="#EABE4D"/>
<path d="M23.8037 20.1524C16.2331 34.792 0.000488281 40.0008 0.000488281 40.0008L7.23213 24.4985C2.44227 21.9943 0.0969469 18.0367 0.196161 12.6258C0.295376 9.11657 1.52362 6.13554 3.88088 3.68274C6.23814 1.22993 9.17049 0.00261099 12.6779 0.000773681C14.3848 -0.0322079 16.0791 0.2996 17.6475 0.974012C19.2159 1.64842 20.6223 2.6499 21.7726 3.91148C24.1871 6.4066 25.5133 9.75766 25.46 13.2294C25.46 15.5389 23.8037 20.1524 23.8037 20.1524Z" fill="#EABE4D"/>
</svg>
